<svg xmlns="http://www.w3.org/2000/svg" width="20" height="20" viewBox="0 0 20 20" fill="none">
<path d="M11.0835 14.3958C10.9168 14.2292 10.8368 14.0278 10.8435 13.7917C10.8502 13.5556 10.9371 13.3542 11.1043 13.1875L13.4585 10.8333H4.16683C3.93072 10.8333 3.73267 10.7533 3.57267 10.5933C3.41267 10.4333 3.33294 10.2356 3.3335 10C3.3335 9.76389 3.4135 9.56583 3.5735 9.40583C3.7335 9.24583 3.93128 9.16611 4.16683 9.16666H13.4585L11.0835 6.79166C10.9168 6.625 10.8335 6.42694 10.8335 6.1975C10.8335 5.96805 10.9168 5.77027 11.0835 5.60416C11.2502 5.4375 11.4482 5.35416 11.6777 5.35416C11.9071 5.35416 12.1049 5.4375 12.271 5.60416L16.0835 9.41666C16.1668 9.5 16.226 9.59027 16.261 9.6875C16.296 9.78472 16.3132 9.88889 16.3127 10C16.3127 10.1111 16.2952 10.2153 16.2602 10.3125C16.2252 10.4097 16.1663 10.5 16.0835 10.5833L12.2502 14.4167C12.0974 14.5694 11.9066 14.6458 11.6777 14.6458C11.4488 14.6458 11.2507 14.5625 11.0835 14.3958Z" fill="white"/>
</svg>