<svg xmlns="http://www.w3.org/2000/svg" width="120" height="120" viewBox="0 0 120 120" fill="none">
<path d="M35 35C35 32.3478 36.0536 29.8043 37.9289 27.9289C39.8043 26.0536 42.3478 25 45 25H75C77.6522 25 80.1957 26.0536 82.0711 27.9289C83.9464 29.8043 85 32.3478 85 35V40C85 42.6522 83.9464 45.1957 82.0711 47.0711C80.1957 48.9464 77.6522 50 75 50H45C42.3478 50 39.8043 48.9464 37.9289 47.0711C36.0536 45.1957 35 42.6522 35 40V35ZM45 32.5C44.337 32.5 43.7011 32.7634 43.2322 33.2322C42.7634 33.7011 42.5 34.337 42.5 35V40C42.5 40.663 42.7634 41.2989 43.2322 41.7678C43.7011 42.2366 44.337 42.5 45 42.5H75C75.663 42.5 76.2989 42.2366 76.7678 41.7678C77.2366 41.2989 77.5 40.663 77.5 40V35C77.5 34.337 77.2366 33.7011 76.7678 33.2322C76.2989 32.7634 75.663 32.5 75 32.5H45ZM41.25 72.5C42.9076 72.5 44.4973 71.8415 45.6694 70.6694C46.8415 69.4973 47.5 67.9076 47.5 66.25C47.5 64.5924 46.8415 63.0027 45.6694 61.8306C44.4973 60.6585 42.9076 60 41.25 60C39.5924 60 38.0027 60.6585 36.8306 61.8306C35.6585 63.0027 35 64.5924 35 66.25C35 67.9076 35.6585 69.4973 36.8306 70.6694C38.0027 71.8415 39.5924 72.5 41.25 72.5ZM47.5 86.25C47.5 87.9076 46.8415 89.4973 45.6694 90.6694C44.4973 91.8415 42.9076 92.5 41.25 92.5C39.5924 92.5 38.0027 91.8415 36.8306 90.6694C35.6585 89.4973 35 87.9076 35 86.25C35 84.5924 35.6585 83.0027 36.8306 81.8306C38.0027 80.6585 39.5924 80 41.25 80C42.9076 80 44.4973 80.6585 45.6694 81.8306C46.8415 83.0027 47.5 84.5924 47.5 86.25ZM78.75 72.5C80.4076 72.5 81.9973 71.8415 83.1694 70.6694C84.3415 69.4973 85 67.9076 85 66.25C85 64.5924 84.3415 63.0027 83.1694 61.8306C81.9973 60.6585 80.4076 60 78.75 60C77.0924 60 75.5027 60.6585 74.3306 61.8306C73.1585 63.0027 72.5 64.5924 72.5 66.25C72.5 67.9076 73.1585 69.4973 74.3306 70.6694C75.5027 71.8415 77.0924 72.5 78.75 72.5ZM85 86.25C85 87.9076 84.3415 89.4973 83.1694 90.6694C81.9973 91.8415 80.4076 92.5 78.75 92.5C77.0924 92.5 75.5027 91.8415 74.3306 90.6694C73.1585 89.4973 72.5 87.9076 72.5 86.25C72.5 84.5924 73.1585 83.0027 74.3306 81.8306C75.5027 80.6585 77.0924 80 78.75 80C80.4076 80 81.9973 80.6585 83.1694 81.8306C84.3415 83.0027 85 84.5924 85 86.25ZM60 72.5C61.6576 72.5 63.2473 71.8415 64.4194 70.6694C65.5915 69.4973 66.25 67.9076 66.25 66.25C66.25 64.5924 65.5915 63.0027 64.4194 61.8306C63.2473 60.6585 61.6576 60 60 60C58.3424 60 56.7527 60.6585 55.5806 61.8306C54.4085 63.0027 53.75 64.5924 53.75 66.25C53.75 67.9076 54.4085 69.4973 55.5806 70.6694C56.7527 71.8415 58.3424 72.5 60 72.5ZM66.25 86.25C66.25 87.9076 65.5915 89.4973 64.4194 90.6694C63.2473 91.8415 61.6576 92.5 60 92.5C58.3424 92.5 56.7527 91.8415 55.5806 90.6694C54.4085 89.4973 53.75 87.9076 53.75 86.25C53.75 84.5924 54.4085 83.0027 55.5806 81.8306C56.7527 80.6585 58.3424 80 60 80C61.6576 80 63.2473 80.6585 64.4194 81.8306C65.5915 83.0027 66.25 84.5924 66.25 86.25ZM36.25 10C31.9402 10 27.807 11.712 24.7595 14.7595C21.712 17.807 20 21.9402 20 26.25V93.75C20 95.884 20.4203 97.9971 21.237 99.9686C22.0536 101.94 23.2506 103.732 24.7595 105.24C26.2685 106.749 28.0599 107.946 30.0314 108.763C32.0029 109.58 34.116 110 36.25 110H83.75C85.884 110 87.9971 109.58 89.9686 108.763C91.9401 107.946 93.7315 106.749 95.2405 105.24C96.7494 103.732 97.9464 101.94 98.763 99.9686C99.5797 97.9971 100 95.884 100 93.75V26.25C100 21.9402 98.2879 17.807 95.2405 14.7595C92.193 11.712 88.0598 10 83.75 10H36.25ZM27.5 26.25C27.5 21.42 31.42 17.5 36.25 17.5H83.75C88.58 17.5 92.5 21.42 92.5 26.25V93.75C92.5 96.0706 91.5781 98.2962 89.9372 99.9372C88.2962 101.578 86.0706 102.5 83.75 102.5H36.25C33.9294 102.5 31.7038 101.578 30.0628 99.9372C28.4219 98.2962 27.5 96.0706 27.5 93.75V26.25Z" fill="white"/>
</svg>