<svg xmlns="http://www.w3.org/2000/svg" width="21" height="20" viewBox="0 0 21 20" fill="none">
<path d="M5.87339 10.8333H11.7067C11.9428 10.8333 12.1409 10.7533 12.3009 10.5933C12.4609 10.4333 12.5406 10.2356 12.5401 10C12.5401 9.76389 12.4601 9.56583 12.3001 9.40583C12.1401 9.24583 11.9423 9.16611 11.7067 9.16667H5.87339C5.63728 9.16667 5.43923 9.24667 5.27923 9.40667C5.11923 9.56667 5.03951 9.76444 5.04006 10C5.04006 10.2361 5.12006 10.4342 5.28006 10.5942C5.44006 10.7542 5.63784 10.8339 5.87339 10.8333ZM5.87339 8.33333H11.7067C11.9428 8.33333 12.1409 8.25333 12.3009 8.09333C12.4609 7.93333 12.5406 7.73556 12.5401 7.5C12.5401 7.26389 12.4601 7.06583 12.3001 6.90583C12.1401 6.74583 11.9423 6.66611 11.7067 6.66667H5.87339C5.63728 6.66667 5.43923 6.74667 5.27923 6.90667C5.11923 7.06667 5.03951 7.26444 5.04006 7.5C5.04006 7.73611 5.12006 7.93417 5.28006 8.09417C5.44006 8.25417 5.63784 8.33389 5.87339 8.33333ZM3.37339 16.6667C2.91506 16.6667 2.52256 16.5033 2.19589 16.1767C1.86923 15.85 1.70617 15.4578 1.70673 15V5C1.70673 4.54167 1.87006 4.14917 2.19673 3.8225C2.52339 3.49583 2.91562 3.33278 3.37339 3.33333H16.7067C17.1651 3.33333 17.5576 3.49667 17.8842 3.82333C18.2109 4.15 18.3739 4.54222 18.3734 5V15C18.3734 15.4583 18.2101 15.8508 17.8834 16.1775C17.5567 16.5042 17.1645 16.6672 16.7067 16.6667H3.37339ZM3.37339 15H16.7067V5H3.37339V15Z" fill="white"/>
</svg>