<svg xmlns="http://www.w3.org/2000/svg" width="21" height="20" viewBox="0 0 21 20" fill="none">
<path d="M11.8683 16.6667C11.9683 17.2667 12.1767 17.825 12.4683 18.3333H5.96C5.035 18.3333 4.29333 17.5917 4.29333 16.6667V3.33333C4.29333 2.8913 4.46893 2.46738 4.78149 2.15482C5.09405 1.84226 5.51797 1.66666 5.96 1.66666H15.96C16.402 1.66666 16.826 1.84226 17.1385 2.15482C17.4511 2.46738 17.6267 2.8913 17.6267 3.33333V10.9083C17.3517 10.8667 17.0767 10.8333 16.7933 10.8333C16.51 10.8333 16.235 10.8667 15.96 10.9083V3.33333H11.7933V10L9.71 8.125L7.62667 10V3.33333H5.96V16.6667H11.8683ZM16.7933 12.5L14.2933 15H15.96V18.3333H17.6267V15H19.2933L16.7933 12.5Z" fill="white"/>
</svg>