<svg xmlns="http://www.w3.org/2000/svg" width="21" height="20" viewBox="0 0 21 20" fill="none">
<path d="M5.79997 15.8333H8.29997V10.8333H13.3V15.8333H15.8V8.33332L10.8 4.58332L5.79997 8.33332V15.8333ZM5.79997 17.5C5.34164 17.5 4.94914 17.3367 4.62247 17.01C4.2958 16.6833 4.13275 16.2911 4.1333 15.8333V8.33332C4.1333 8.06943 4.19247 7.81943 4.3108 7.58332C4.42914 7.34721 4.59219 7.15277 4.79997 6.99999L9.79997 3.24999C9.95275 3.13888 10.1125 3.05555 10.2791 2.99999C10.4458 2.94443 10.6194 2.91666 10.8 2.91666C10.9805 2.91666 11.1541 2.94443 11.3208 2.99999C11.4875 3.05555 11.6472 3.13888 11.8 3.24999L16.8 6.99999C17.0083 7.15277 17.1716 7.34721 17.29 7.58332C17.4083 7.81943 17.4672 8.06943 17.4666 8.33332V15.8333C17.4666 16.2917 17.3033 16.6842 16.9766 17.0108C16.65 17.3375 16.2577 17.5005 15.8 17.5H11.6333V12.5H9.96664V17.5H5.79997Z" fill="white"/>
</svg>