<svg xmlns="http://www.w3.org/2000/svg" width="21" height="20" viewBox="0 0 21 20" fill="none">
<path d="M16.7934 2.5H5.12669C4.68466 2.5 4.26074 2.67559 3.94818 2.98816C3.63562 3.30072 3.46002 3.72464 3.46002 4.16667V15.8333C3.46002 16.2754 3.63562 16.6993 3.94818 17.0118C4.26074 17.3244 4.68466 17.5 5.12669 17.5H16.7934C17.2354 17.5 17.6593 17.3244 17.9719 17.0118C18.2844 16.6993 18.46 16.2754 18.46 15.8333V4.16667C18.46 3.72464 18.2844 3.30072 17.9719 2.98816C17.6593 2.67559 17.2354 2.5 16.7934 2.5ZM16.7934 15.8333H5.12669V4.16667H16.7934V15.8333ZM12.5767 8.38333C13.1017 8.91667 13.3934 9.61667 13.3934 10.3667C13.3934 11.1167 13.1017 11.8167 12.5767 12.3417L10.735 14.1667C10.1934 14.725 9.47669 15 8.76002 15C8.04335 15 7.32669 14.725 6.79336 14.1667C5.68502 13.0917 5.68502 11.3167 6.79336 10.2167L7.91836 9.08333L7.91002 9.58333C7.90169 10 7.96836 10.4167 8.10169 10.7833L8.14335 10.9083L7.81002 11.25C7.68374 11.3739 7.58342 11.5217 7.51494 11.6848C7.44646 11.848 7.41119 12.0231 7.41119 12.2C7.41119 12.3769 7.44646 12.552 7.51494 12.7152C7.58342 12.8783 7.68374 13.0261 7.81002 13.15C8.31836 13.6667 9.20169 13.6667 9.71002 13.15L11.5434 11.325C11.7934 11.0667 11.9434 10.725 11.9434 10.3667C11.9434 10 11.7934 9.675 11.5434 9.41667C11.4748 9.3492 11.4204 9.26878 11.3832 9.18008C11.3461 9.09137 11.327 8.99617 11.327 8.9C11.327 8.80383 11.3461 8.70863 11.3832 8.61992C11.4204 8.53122 11.4748 8.4508 11.5434 8.38333C11.8184 8.10833 12.3017 8.11667 12.5767 8.38333ZM15.96 7.8C15.96 8.55 15.6684 9.25 15.1267 9.78333L14.01 10.9167V10.4167C14.0184 10 13.9517 9.58333 13.8184 9.21667L13.7767 9.1L14.11 8.75C14.2363 8.62611 14.3366 8.47828 14.4051 8.31516C14.4736 8.15204 14.5089 7.97691 14.5089 7.8C14.5089 7.62309 14.4736 7.44796 14.4051 7.28484C14.3366 7.12172 14.2363 6.97389 14.11 6.85C13.6017 6.33333 12.71 6.34167 12.21 6.85L10.3767 8.68333C10.1267 8.93333 9.97669 9.275 9.97669 9.63333C9.97669 10 10.1267 10.325 10.3767 10.5833C10.5184 10.7167 10.5934 10.9 10.5934 11.1C10.5934 11.3 10.5184 11.4833 10.3767 11.6167C10.3088 11.6841 10.2282 11.7373 10.1394 11.7731C10.0507 11.8089 9.95569 11.8265 9.86002 11.825C9.67669 11.825 9.48502 11.7583 9.34336 11.6167C8.81911 11.0914 8.52467 10.3796 8.52467 9.6375C8.52467 8.89539 8.81911 8.18359 9.34336 7.65833L11.185 5.83333C11.4419 5.57113 11.7486 5.36283 12.087 5.22063C12.4254 5.07843 12.7888 5.00518 13.1559 5.00518C13.5229 5.00518 13.8863 5.07843 14.2247 5.22063C14.5631 5.36283 14.8698 5.57113 15.1267 5.83333C15.6684 6.35 15.96 7.05 15.96 7.8Z" fill="white"/>
</svg>