<svg xmlns="http://www.w3.org/2000/svg" width="120" height="120" viewBox="0 0 120 120" fill="none">
    <path d="M4.39453 10.6711V33.9773L24.9244 44.1797L34.2042 25.3931L4.39453 10.6711ZM64.065 27.3633L64.2846 34.2258C60.6088 34.8798 57.0515 36.0798 53.7307 37.7859C59.6379 42.2702 65.0428 47.3644 69.7634 52.9617C77.4907 52.2703 84.8585 56.3142 88.1838 63.3033C88.7257 64.4419 89.1912 65.7237 89.5022 66.9877L89.9194 68.6864L89.8392 68.7305C91.2164 78.1277 85.1025 87.225 75.6961 89.5383C65.7061 91.9955 55.6066 85.8811 53.1516 75.9155C52.2452 72.2341 52.6434 68.5617 53.8256 65.2734C49.1798 59.932 44.1729 55.3898 38.7741 51.5991C38.7279 51.6745 38.6813 51.7505 38.6353 51.8264C38.6341 51.828 38.6362 51.8318 38.6353 51.8334L29.5826 55.2834L35.449 58.4766C34.0538 62.3016 33.2585 66.4195 33.1784 70.7081L27.0994 78.2006L33.743 78.0469C34.4895 82.2715 35.9426 86.253 37.9688 89.8683L36.4453 99.1554L42.0117 95.7129C44.7713 98.9976 48.0675 101.791 51.7603 103.975L55.0561 112.588L58.125 106.97C62.0784 108.397 66.3405 109.185 70.7813 109.204L78.0176 115.049L77.8125 108.574C82.0781 107.791 86.0937 106.303 89.7291 104.216L99.0234 105.71L95.5444 100.093C98.7125 97.3727 101.41 94.1482 103.528 90.5494L112.5 87.1289L106.604 83.9208C107.922 80.1614 108.665 76.1348 108.72 71.9384L114.983 64.2188L108.069 64.38C107.327 60.4452 105.96 56.6545 104.019 53.1518L105.638 43.2645L99.7045 46.9266C97.0978 43.8703 94.0224 41.2473 90.5932 39.1554L87.0267 29.8315L83.7307 35.8666C80.0105 34.5293 76.0226 33.7613 71.8655 33.6623L64.0655 27.3635L64.065 27.3633ZM35.933 31.7871L34.3214 35.0391C48.8756 42.4894 58.9406 51.307 67.2656 62.7905C67.5403 62.6572 67.8215 62.5375 68.108 62.4319C69.1357 62.0564 70.2217 61.8655 71.3159 61.8677C71.4682 61.8677 71.6187 61.8741 71.7706 61.8818C75.4066 62.0726 78.7713 64.3889 80.0909 68.0051C81.8494 72.8269 79.3277 78.2168 74.5022 79.973C69.6764 81.7284 64.2788 79.2206 62.5198 74.3988C61.3971 71.3205 62.0224 68.014 63.8745 65.5659C55.8884 54.4784 46.4777 46.1836 32.3805 38.9714L30.9523 41.8575C41.082 46.9446 50.0984 54.0619 57.986 63.3759L58.8797 64.4236L58.3228 65.6759C57.0682 68.4982 56.6297 71.7105 57.4073 74.8673C59.2988 82.545 66.9506 87.1777 74.6557 85.2825C82.3643 83.3864 87.132 75.6872 85.2471 68.0339C85.0151 67.0917 84.627 66.0218 84.2288 65.1851C81.5597 59.5753 75.5367 56.4438 69.1922 57.4287L67.954 57.6195L67.163 56.6599C58.7817 46.4623 47.9555 37.9174 35.9325 31.7869L35.933 31.7871ZM71.3236 66.2402C70.7363 66.242 70.1537 66.3462 69.6021 66.548C66.997 67.4958 65.6895 70.3116 66.6354 72.9054C67.5816 75.499 70.4027 76.8049 73.0076 75.8569C75.6124 74.9091 76.92 72.1005 75.9738 69.5067C75.2644 67.5614 73.5007 66.338 71.5648 66.2475C71.4841 66.2438 71.4042 66.24 71.3234 66.2405L71.3236 66.2402Z" fill="white"/>
</svg>