<svg xmlns="http://www.w3.org/2000/svg" width="21" height="20" viewBox="0 0 21 20" fill="none">
<g clip-path="url(#clip0_15_71)">
<path fill-rule="evenodd" clip-rule="evenodd" d="M16.7533 3.95083V6.66667C17.0816 6.66667 17.4067 6.73133 17.71 6.85697C18.0134 6.9826 18.289 7.16675 18.5211 7.3989C18.7533 7.63105 18.9374 7.90664 19.063 8.20996C19.1887 8.51327 19.2533 8.83836 19.2533 9.16667C19.2533 9.49497 19.1887 9.82006 19.063 10.1234C18.9374 10.4267 18.7533 10.7023 18.5211 10.9344C18.289 11.1666 18.0134 11.3507 17.71 11.4764C17.4067 11.602 17.0816 11.6667 16.7533 11.6667V14.1667C16.7533 15.54 15.1858 16.3242 14.0867 15.5L12.37 14.2117C11.4524 13.5236 10.384 13.0643 9.25334 12.8717V15.2417C9.25343 15.7865 9.05658 16.3129 8.69909 16.724C8.34159 17.1351 7.84755 17.4031 7.30802 17.4786C6.76849 17.5541 6.21985 17.432 5.76324 17.1349C5.30662 16.8377 4.97281 16.3855 4.82334 15.8617L3.51501 11.2817C3.04419 10.7257 2.73779 10.0493 2.63025 9.32876C2.5227 8.60817 2.61828 7.87186 2.90624 7.20261C3.1942 6.53337 3.66312 5.9577 4.2603 5.54033C4.85747 5.12296 5.55922 4.88043 6.28667 4.84L8.80167 4.7C10.0322 4.63152 11.2289 4.27195 12.2933 3.65083L14.2467 2.51083C15.3583 1.86333 16.7533 2.66417 16.7533 3.95083ZM5.61501 12.565L6.42584 15.4042C6.46486 15.5416 6.55229 15.6603 6.67198 15.7383C6.79168 15.8163 6.93555 15.8483 7.07703 15.8285C7.21852 15.8087 7.34805 15.7384 7.44173 15.6305C7.5354 15.5226 7.58689 15.3845 7.58667 15.2417V12.7333L6.28667 12.6608C6.06044 12.6483 5.83572 12.6162 5.61501 12.565ZM15.0867 3.95083L13.1325 5.09167C11.9453 5.7837 10.6215 6.20857 9.25334 6.33667V11.1858C10.7425 11.3908 12.16 11.9717 13.37 12.8783L15.0867 14.1667V3.95083ZM7.58667 6.43667L6.37834 6.50333C5.81621 6.53437 5.28614 6.77502 4.89277 7.17777C4.4994 7.58052 4.2713 8.11611 4.25351 8.67881C4.23572 9.24151 4.42953 9.79044 4.79667 10.2172C5.16382 10.644 5.67763 10.9177 6.23667 10.9842L6.37834 10.9967L7.58667 11.0633V6.43667ZM16.7533 8.33333V10C16.9657 9.99976 17.17 9.91843 17.3245 9.77263C17.4789 9.62682 17.5719 9.42754 17.5843 9.2155C17.5968 9.00347 17.5278 8.79468 17.3915 8.63181C17.2551 8.46893 17.0618 8.36425 16.8508 8.33917L16.7533 8.33333Z" fill="white"/>
</g>
<defs>
<clipPath id="clip0_15_71">
<rect width="20" height="20" fill="white" transform="translate(0.919983)"/>
</clipPath>
</defs>
</svg>