<svg xmlns="http://www.w3.org/2000/svg" width="120" height="120" viewBox="0 0 120 120" fill="none">
<path fill-rule="evenodd" clip-rule="evenodd" d="M56.5602 5.20001C55.0194 5.20173 53.5249 5.72668 52.3214 6.68885C51.118 7.65102 50.277 8.99338 49.9362 10.496L48.0322 18.896C44.9922 19.776 42.1122 20.992 39.3922 22.48L32.1122 17.888C30.8071 17.0642 29.2605 16.7089 27.7267 16.8804C26.1929 17.052 24.7631 17.7402 23.6722 18.832L18.8242 23.68C17.7343 24.7704 17.0473 26.1987 16.8758 27.7307C16.7043 29.2628 17.0584 30.8077 17.8802 32.112L22.4722 39.408C20.9842 42.112 19.7762 45.008 18.8962 48.04L10.4962 49.944C8.99222 50.2851 7.64886 51.1273 6.68654 52.3324C5.72422 53.5374 5.2001 55.0338 5.2002 56.576V63.432C5.2001 64.9742 5.72422 66.4706 6.68654 67.6757C7.64886 68.8807 8.99222 69.7229 10.4962 70.064L18.8962 71.968C19.7762 75 20.9842 77.888 22.4802 80.608L17.8802 87.888C17.0564 89.1931 16.7011 90.7397 16.8726 92.2735C17.0442 93.8073 17.7324 95.2372 18.8242 96.328L23.6802 101.176C24.7705 102.266 26.1988 102.953 27.7309 103.124C29.263 103.296 30.8078 102.942 32.1122 102.12L39.4002 97.528C42.1122 99.016 45.0002 100.224 48.0322 101.104L49.9362 109.504C50.2773 111.008 51.1195 112.351 52.3245 113.314C53.5296 114.276 55.026 114.8 56.5682 114.8H63.4242C64.9664 114.8 66.4628 114.276 67.6678 113.314C68.8729 112.351 69.7151 111.008 70.0562 109.504L71.9602 101.104C75.0002 100.224 77.8802 99.024 80.6002 97.528L87.8882 102.12C89.1925 102.942 90.7374 103.296 92.2695 103.124C93.8015 102.953 95.2299 102.266 96.3202 101.176L101.168 96.328C102.258 95.2377 102.945 93.8094 103.117 92.2773C103.288 90.7452 102.934 89.2004 102.112 87.896L97.5202 80.608C99.0162 77.888 100.224 75.008 101.104 71.968L109.504 70.064C111.008 69.7229 112.352 68.8807 113.314 67.6757C114.276 66.4706 114.8 64.9742 114.8 63.432V56.576C114.802 55.0325 114.279 53.5342 113.316 52.3275C112.354 51.1208 111.009 50.2774 109.504 49.936L101.104 48.04C100.224 45 99.0242 42.12 97.5282 39.4L102.12 32.12C102.944 30.8149 103.299 29.2683 103.128 27.7345C102.956 26.2007 102.268 24.7709 101.176 23.68L96.3282 18.832C95.2373 17.7402 93.8075 17.052 92.2737 16.8804C90.7399 16.7089 89.1933 17.0642 87.8882 17.888L80.6082 22.48C77.8685 20.9717 74.9711 19.7698 71.9682 18.896L70.0562 10.496C69.7151 8.99204 68.8729 7.64867 67.6678 6.68635C66.4628 5.72403 64.9664 5.19992 63.4242 5.20001H56.5602ZM39.3602 30.504C43.6526 27.4896 48.5548 25.455 53.7202 24.544L56.5682 12H63.4242L66.2722 24.544C71.4367 25.4536 76.3386 27.4854 80.6322 30.496L91.5122 23.64L96.3682 28.488L89.5042 39.368C92.4642 43.584 94.5282 48.456 95.4562 53.728L108 56.576V63.432L95.4562 66.272C94.549 71.4396 92.5171 76.3447 89.5042 80.64L96.3602 91.52L91.5122 96.368L80.6322 89.512C76.3384 92.5208 71.4363 94.5499 66.2722 95.456L63.4242 108H56.5682L53.7202 95.456C48.5582 94.5466 43.6588 92.5147 39.3682 89.504L28.4882 96.368L23.6322 91.52L30.4962 80.64C27.4835 76.3446 25.4516 71.4396 24.5442 66.272L12.0002 63.44V56.584L24.5442 53.736C25.4539 48.5741 27.4857 43.6747 30.4962 39.384L23.6322 28.48L28.4802 23.632L39.3602 30.504ZM72.2082 60C72.2082 63.2357 70.9228 66.3388 68.6349 68.6267C66.347 70.9147 63.2438 72.2 60.0082 72.2C56.7725 72.2 53.6694 70.9147 51.3815 68.6267C49.0935 66.3388 47.8082 63.2357 47.8082 60C47.8082 56.7644 49.0935 53.6613 51.3815 51.3733C53.6694 49.0854 56.7725 47.8 60.0082 47.8C63.2438 47.8 66.347 49.0854 68.6349 51.3733C70.9228 53.6613 72.2082 56.7644 72.2082 60ZM79.4082 60C79.4082 65.1452 77.3643 70.0797 73.7261 73.7179C70.0879 77.3561 65.1534 79.4 60.0082 79.4C54.863 79.4 49.9285 77.3561 46.2903 73.7179C42.6521 70.0797 40.6082 65.1452 40.6082 60C40.6082 54.8548 42.6521 49.9203 46.2903 46.2821C49.9285 42.6439 54.863 40.6 60.0082 40.6C65.1534 40.6 70.0879 42.6439 73.7261 46.2821C77.3643 49.9203 79.4082 54.8548 79.4082 60Z" fill="white" fill-opacity="1"/>
</svg>