<svg xmlns="http://www.w3.org/2000/svg" width="21" height="20" viewBox="0 0 21 20" fill="none">
<path d="M17.3072 3.06641L7.13144 1.26953C6.805 1.21209 6.46912 1.28664 6.19764 1.47681C5.92617 1.66697 5.74133 1.95717 5.68379 2.28359L3.35957 15.4867C3.33114 15.6485 3.33486 15.8142 3.37053 15.9745C3.40619 16.1348 3.47309 16.2866 3.56741 16.421C3.66173 16.5554 3.78162 16.67 3.92022 16.7581C4.05882 16.8462 4.21343 16.9061 4.37519 16.9344L14.551 18.7313C14.7128 18.7598 14.8786 18.7562 15.039 18.7205C15.1994 18.6849 15.3512 18.6181 15.4857 18.5237C15.6203 18.4294 15.7349 18.3095 15.823 18.1708C15.9112 18.0321 15.9711 17.8775 15.9994 17.7156L18.3236 4.5125C18.3806 4.18596 18.3055 3.85017 18.1149 3.57898C17.9243 3.3078 17.6338 3.12342 17.3072 3.06641ZM14.7666 17.5L4.59004 15.7031L6.91426 2.5L17.09 4.29688L14.7666 17.5ZM7.81972 4.56406C7.84867 4.40092 7.94122 4.25594 8.07703 4.16101C8.21283 4.06608 8.38078 4.02896 8.54394 4.05781L15.0283 5.20234C15.1824 5.22934 15.3208 5.31315 15.4161 5.43723C15.5114 5.5613 15.5567 5.71661 15.5431 5.87247C15.5295 6.02833 15.4578 6.1734 15.3424 6.27903C15.227 6.38466 15.0762 6.44316 14.9197 6.44297C14.8831 6.44292 14.8465 6.43978 14.8103 6.43359L8.32597 5.28828C8.16283 5.25933 8.01785 5.16678 7.92292 5.03098C7.82799 4.89517 7.79087 4.72723 7.81972 4.56406ZM7.38691 7.02656C7.40116 6.94571 7.43119 6.86846 7.4753 6.79921C7.51941 6.72997 7.57673 6.6701 7.64398 6.62301C7.71123 6.57593 7.78711 6.54255 7.86726 6.5248C7.94742 6.50704 8.03028 6.50525 8.11113 6.51953L14.5955 7.66484C14.7507 7.6908 14.8904 7.77434 14.9867 7.89878C15.083 8.02321 15.1288 8.1794 15.115 8.33614C15.1012 8.49288 15.0288 8.63864 14.9122 8.74432C14.7956 8.85001 14.6435 8.90783 14.4861 8.90625C14.4492 8.90632 14.4123 8.90292 14.376 8.89609L7.8916 7.75156C7.72858 7.72226 7.58386 7.62944 7.48923 7.4935C7.3946 7.35756 7.3578 7.18962 7.38691 7.02656ZM6.95332 9.48828C6.98281 9.32557 7.07559 9.18117 7.21133 9.08672C7.34707 8.99227 7.51471 8.95547 7.67754 8.98438L10.9182 9.55391C11.0722 9.58089 11.2105 9.66465 11.3058 9.78864C11.4011 9.91263 11.4465 10.0678 11.433 10.2236C11.4194 10.3794 11.348 10.5245 11.2327 10.6302C11.1174 10.7359 10.9667 10.7945 10.8103 10.7945C10.7737 10.7945 10.7371 10.7914 10.701 10.7852L7.45879 10.2125C7.29578 10.1834 7.151 10.0907 7.05623 9.95496C6.96146 9.81917 6.92445 9.65133 6.95332 9.48828Z" fill="white"/>
</svg>