<svg xmlns="http://www.w3.org/2000/svg" width="21" height="20" viewBox="0 0 21 20" fill="none">
<g clip-path="url(#clip0_15_63)">
<path d="M7.55144 3.21428L8.16572 1.62856C8.26932 1.36008 8.45159 1.12915 8.68865 0.966011C8.92571 0.80287 9.20652 0.715129 9.49429 0.714279H10.6657C10.9535 0.715129 11.2343 0.80287 11.4714 0.966011C11.7084 1.12915 11.8907 1.36008 11.9943 1.62856L12.6086 3.21428L14.6943 4.41428L16.38 4.15714C16.6607 4.11904 16.9464 4.16524 17.2007 4.28988C17.4551 4.41452 17.6667 4.61197 17.8086 4.85714L18.38 5.85714C18.5264 6.10621 18.5939 6.39382 18.5735 6.68202C18.5531 6.97022 18.4458 7.24547 18.2657 7.47142L17.2229 8.79999V11.2L18.2943 12.5286C18.4743 12.7545 18.5817 13.0298 18.6021 13.318C18.6225 13.6062 18.555 13.8938 18.4086 14.1429L17.8372 15.1429C17.6953 15.388 17.4837 15.5855 17.2293 15.7101C16.9749 15.8347 16.6893 15.881 16.4086 15.8429L14.7229 15.5857L12.6372 16.7857L12.0229 18.3714C11.9193 18.6399 11.737 18.8708 11.4999 19.034C11.2629 19.1971 10.9821 19.2849 10.6943 19.2857H9.49429C9.20652 19.2849 8.92571 19.1971 8.68865 19.034C8.45159 18.8708 8.26932 18.6399 8.16572 18.3714L7.55144 16.7857L5.46572 15.5857L3.78001 15.8429C3.49932 15.881 3.21364 15.8347 2.95927 15.7101C2.7049 15.5855 2.49333 15.388 2.35144 15.1429L1.78001 14.1429C1.63358 13.8938 1.56612 13.6062 1.58652 13.318C1.60692 13.0298 1.71424 12.7545 1.89429 12.5286L2.93715 11.2V8.79999L1.86572 7.47142C1.68566 7.24547 1.57835 6.97022 1.55795 6.68202C1.53755 6.39382 1.60501 6.10621 1.75144 5.85714L2.32286 4.85714C2.46476 4.61197 2.67633 4.41452 2.9307 4.28988C3.18506 4.16524 3.47075 4.11904 3.75144 4.15714L5.43715 4.41428L7.55144 3.21428ZM7.22286 9.99999C7.22286 10.5651 7.39043 11.1175 7.70438 11.5873C8.01833 12.0572 8.46455 12.4234 8.98663 12.6396C9.5087 12.8559 10.0832 12.9125 10.6374 12.8022C11.1916 12.692 11.7007 12.4199 12.1003 12.0203C12.4999 11.6207 12.772 11.1116 12.8823 10.5574C12.9925 10.0032 12.9359 9.42869 12.7197 8.90661C12.5034 8.38454 12.1372 7.93831 11.6674 7.62437C11.1975 7.31042 10.6451 7.14285 10.08 7.14285C9.32225 7.14285 8.59552 7.44387 8.0597 7.97969C7.52388 8.51551 7.22286 9.24223 7.22286 9.99999Z" stroke="white" stroke-width="1.42857" stroke-linecap="round" stroke-linejoin="round"/>
</g>
<defs>
<clipPath id="clip0_15_63">
<rect width="20" height="20" fill="white" transform="translate(0.0800171)"/>
</clipPath>
</defs>
</svg>