<svg xmlns="http://www.w3.org/2000/svg" width="21" height="20" viewBox="0 0 21 20" fill="none">
<path d="M4.21336 17.5C3.75503 17.5 3.36253 17.3367 3.03586 17.01C2.70919 16.6833 2.54614 16.2911 2.54669 15.8333V6.66667C2.54669 6.20834 2.71003 5.81584 3.03669 5.48917C3.36336 5.16251 3.75558 4.99945 4.21336 5.00001H7.54669V3.33334C7.54669 2.87501 7.71003 2.48251 8.03669 2.15584C8.36336 1.82917 8.75558 1.66612 9.21336 1.66667H12.5467C13.005 1.66667 13.3975 1.83001 13.7242 2.15667C14.0509 2.48334 14.2139 2.87556 14.2134 3.33334V5.00001H17.5467C18.005 5.00001 18.3975 5.16334 18.7242 5.49001C19.0509 5.81667 19.2139 6.2089 19.2134 6.66667V15.8333C19.2134 16.2917 19.05 16.6842 18.7234 17.0108C18.3967 17.3375 18.0045 17.5006 17.5467 17.5H4.21336ZM4.21336 15.8333H17.5467V6.66667H4.21336V15.8333ZM9.21336 5.00001H12.5467V3.33334H9.21336V5.00001Z" fill="white"/>
</svg>